<svg width="27" height="10" viewBox="0 0 27 10" fill="none" xmlns="http://www.w3.org/2000/svg">
    <path d="M1 4.4C0.668629 4.4 0.4 4.66863 0.4 5C0.4 5.33137 0.668629 5.6 1 5.6V4.4ZM26.4243 5.42426C26.6586 5.18995 26.6586 4.81005 26.4243 4.57574L22.6059 0.757359C22.3716 0.523045 21.9917 0.523045 21.7574 0.757359C21.523 0.991674 21.523 1.37157 21.7574 1.60589L25.1515 5L21.7574 8.39411C21.523 8.62843 21.523 9.00833 21.7574 9.24264C21.9917 9.47696 22.3716 9.47696 22.6059 9.24264L26.4243 5.42426ZM1 5.6H26V4.4H1V5.6Z" fill="white"/>
</svg>
