<svg width="27" height="10" viewBox="0 0 27 10" fill="none" xmlns="http://www.w3.org/2000/svg"><path d="M26 5.6C26.3314 5.6 26.6 5.33137 26.6 5C26.6 4.66863 26.3314 4.4 26 4.4L26 5.6ZM0.575735 4.57574C0.341421 4.81005 0.341421 5.18995 0.575735 5.42427L4.39411 9.24264C4.62843 9.47696 5.00833 9.47696 5.24264 9.24264C5.47696 9.00833 5.47696 8.62843 5.24264 8.39411L1.84853 5L5.24264 1.60589C5.47696 1.37157 5.47696 0.991676 5.24264 0.757361C5.00833 0.523046 4.62843 0.523046 4.39411 0.757361L0.575735 4.57574ZM26 4.4L1 4.4L1 5.6L26 5.6L26 4.4Z" fill="white"/></svg>