<svg width="21" height="20" viewBox="0 0 21 20" fill="none" xmlns="http://www.w3.org/2000/svg">
    <g clip-path="url(#clip0_108_25860)">
        <path d="M7.75 3.33333C7.75 1.4925 10.5483 0 14 0C17.4517 0 20.25 1.4925 20.25 3.33333C20.25 5.17417 17.4517 6.66667 14 6.66667C10.5483 6.66667 7.75 5.17417 7.75 3.33333ZM14 8.33333C13.1442 8.33333 12.3325 8.2375 11.5908 8.07083C10.4583 7.22167 8.6025 6.66667 6.5 6.66667C3.04833 6.66667 0.25 8.15917 0.25 10C0.25 11.8408 3.04833 13.3333 6.5 13.3333C9.95167 13.3333 12.75 11.8408 12.75 10C12.75 9.97583 12.7442 9.9525 12.7433 9.92833H12.75V11.6667C12.75 13.5075 9.95167 15 6.5 15C3.04833 15 0.25 13.5075 0.25 11.6667V13.3333C0.25 15.1742 3.04833 16.6667 6.5 16.6667C9.95167 16.6667 12.75 15.1742 12.75 13.3333V15C12.75 16.8408 9.95167 18.3333 6.5 18.3333C3.04833 18.3333 0.25 16.8408 0.25 15V16.6667C0.25 18.5075 3.04833 20 6.5 20C9.95167 20 12.75 18.5075 12.75 16.6667V16.6C13.1542 16.6433 13.5717 16.6667 14 16.6667C17.4517 16.6667 20.25 15.1742 20.25 13.3333V11.6667C20.25 13.4325 17.6733 14.8742 14.4167 14.9892V13.3225C17.6733 13.2075 20.25 11.7667 20.25 10V8.33333C20.25 10.0992 17.6733 11.5408 14.4167 11.6558V9.98917C17.6733 9.87417 20.25 8.43333 20.25 6.66667V5C20.25 6.84083 17.4517 8.33333 14 8.33333Z" fill="white"/>
    </g>
    <defs>
        <clipPath id="clip0_108_25860">
            <rect width="20" height="20" fill="white" transform="translate(0.25)"/>
        </clipPath>
    </defs>
</svg>
