<svg width="21" height="20" viewBox="0 0 21 20" fill="none" xmlns="http://www.w3.org/2000/svg">
    <g clip-path="url(#clip0_108_25862)">
        <path d="M20.75 8.33363V6.59113C20.7501 6.142 20.6292 5.70114 20.4 5.31489C20.1708 4.92864 19.8418 4.61127 19.4475 4.39613L11.9475 0.3053C11.5804 0.10435 11.1685 -0.000976562 10.75 -0.000976562C10.3315 -0.000976562 9.91965 0.10435 9.5525 0.3053L2.0525 4.39613C1.65824 4.61127 1.32923 4.92864 1.10003 5.31489C0.870829 5.70114 0.749917 6.142 0.75 6.59113V8.33363H3.25V15.8336H1.58333V18.3336H0.75V20.0003H20.75V18.3336H19.9167V15.8336H18.25V8.33363H20.75ZM12.4167 8.33363V15.8336H9.08333V8.33363H12.4167ZM4.91667 8.33363H7.41667V15.8336H4.91667V8.33363ZM16.5833 15.8336H14.0833V8.33363H16.5833V15.8336Z" fill="white"/>
    </g>
    <defs>
        <clipPath id="clip0_108_25862">
            <rect width="20" height="20" fill="white" transform="translate(0.75)"/>
        </clipPath>
    </defs>
</svg>
