<svg width="21" height="20" viewBox="0 0 21 20" fill="none" xmlns="http://www.w3.org/2000/svg">
    <g clip-path="url(#clip0_108_25864)">
        <path d="M15.25 10C12.4883 10 10.25 12.2383 10.25 15C10.25 17.7617 12.4883 20 15.25 20C18.0117 20 20.25 17.7617 20.25 15C20.25 12.2383 18.0117 10 15.25 10ZM17.91 15.1683L16.0658 16.9383C15.6892 17.31 15.1892 17.4975 14.6883 17.4975C14.1875 17.4975 13.6858 17.31 13.3025 16.9358L12.3592 16.0117C12.03 15.6892 12.0258 15.1617 12.3475 14.8333C12.6692 14.5033 13.1967 14.4992 13.5258 14.8217L14.4683 15.745C14.5883 15.8633 14.7842 15.8608 14.9033 15.7433L16.7558 13.965C17.0867 13.6467 17.615 13.6558 17.9342 13.9892C18.2525 14.3208 18.2417 14.8492 17.91 15.1683ZM8.58333 15C8.58333 13.0083 9.45667 11.2217 10.8408 10H4.41667C3.95583 10 3.58333 9.6275 3.58333 9.16667C3.58333 8.70583 3.95583 8.33333 4.41667 8.33333H11.0833C11.5442 8.33333 11.9167 8.70583 11.9167 9.16667C11.9167 9.18667 11.9158 9.20667 11.9142 9.22667C12.895 8.65833 14.0342 8.33333 15.25 8.33333V4.16667C15.25 1.86917 13.3808 0 11.0833 0H4.41667C2.11917 0 0.25 1.86917 0.25 4.16667V15.8333C0.25 18.1308 2.11917 20 4.41667 20H10.8408C9.45667 18.7783 8.58333 16.9917 8.58333 15ZM4.41667 4.16667H11.0833C11.5442 4.16667 11.9167 4.53917 11.9167 5C11.9167 5.46083 11.5442 5.83333 11.0833 5.83333H4.41667C3.95583 5.83333 3.58333 5.46083 3.58333 5C3.58333 4.53917 3.95583 4.16667 4.41667 4.16667ZM6.08333 14.1667H4.41667C3.95583 14.1667 3.58333 13.7942 3.58333 13.3333C3.58333 12.8725 3.95583 12.5 4.41667 12.5H6.08333C6.54417 12.5 6.91667 12.8725 6.91667 13.3333C6.91667 13.7942 6.54417 14.1667 6.08333 14.1667Z" fill="white"/>
    </g>
    <defs>
        <clipPath id="clip0_108_25864">
            <rect width="20" height="20" fill="white" transform="translate(0.25)"/>
        </clipPath>
    </defs>
</svg>
