<svg width="21" height="20" viewBox="0 0 21 20" fill="none" xmlns="http://www.w3.org/2000/svg">
    <g clip-path="url(#clip0_108_25866)">
        <path d="M13.1904 7.5H13.2504C14.6288 7.5 15.7504 6.37833 15.7504 5V2.5C15.7504 1.12167 14.6288 0 13.2504 0H8.25043C6.8721 0 5.75043 1.12167 5.75043 2.5V5C5.75043 6.37833 6.8721 7.5 8.25043 7.5H8.41877L9.9471 8.8475C10.1888 9.06083 10.4913 9.1675 10.7938 9.1675C11.0921 9.1675 11.3904 9.0625 11.6254 8.85417L13.1904 7.50083V7.5ZM5.33377 15C6.9421 15 8.25043 13.6917 8.25043 12.0833C8.25043 10.475 6.9421 9.16667 5.33377 9.16667C3.72543 9.16667 2.4171 10.475 2.4171 12.0833C2.4171 13.6917 3.72543 15 5.33377 15ZM13.2504 12.0833C13.2504 13.6917 14.5588 15 16.1671 15C17.7754 15 19.0838 13.6917 19.0838 12.0833C19.0838 10.475 17.7754 9.16667 16.1671 9.16667C14.5588 9.16667 13.2504 10.475 13.2504 12.0833ZM5.33377 15.8333C3.30543 15.8333 1.48543 17.055 0.802933 18.8742C0.707099 19.13 0.742933 19.4167 0.897933 19.6417C1.0546 19.8667 1.3096 20 1.58293 20H9.08293C9.35627 20 9.6121 19.8658 9.76793 19.6417C9.92377 19.4167 9.95877 19.13 9.86293 18.8742C9.18127 17.055 7.36043 15.8333 5.3321 15.8333H5.33377ZM20.6979 18.8742C20.0163 17.055 18.1954 15.8333 16.1671 15.8333C14.1388 15.8333 12.3188 17.055 11.6363 18.8742C11.5404 19.13 11.5763 19.4167 11.7313 19.6417C11.8879 19.8667 12.1429 20 12.4163 20H19.9163C20.1896 20 20.4454 19.8658 20.6013 19.6417C20.7571 19.4167 20.7921 19.13 20.6963 18.8742H20.6979Z" fill="white"/>
    </g>
    <defs>
        <clipPath id="clip0_108_25866">
            <rect width="20" height="20" fill="white" transform="translate(0.75)"/>
        </clipPath>
    </defs>
</svg>
